<svg xmlns="http://www.w3.org/2000/svg" viewBox="0 0 512 512" role="img" aria-labelledby="title">
  <title>CreatorConnect CC Logo</title>
  <rect width="512" height="512" fill="#0a0d15" />
  <path
    fill="#f2f2f2"
    d="M230 92c-69 0-124 56-124 124s55 124 124 124c44 0 82-20 104-56l-47-28c-12 19-33 31-57 31-39 0-71-32-71-71s32-71 71-71c24 0 45 12 57 31l47-28c-22-36-60-56-104-56z"
  />
  <path
    fill="#f2f2f2"
    d="M332 173c-69 0-124 56-124 124s55 124 124 124c44 0 82-20 104-56l-47-28c-12 19-33 31-57 31-39 0-71-32-71-71s32-71 71-71c24 0 45 12 57 31l47-28c-22-36-60-56-104-56z"
  />
</svg>
